<svg width="138" height="60" viewBox="0 0 138 60" fill="none" xmlns="http://www.w3.org/2000/svg">
<path d="M2.89032 14.5006H12.0981C14.7682 14.5006 16.874 15.1475 18.4155 16.4413C19.9845 17.7075 20.769 19.4417 20.769 21.6439C20.769 24.1488 19.6817 26.0757 17.5071 27.4245C20.3974 28.5806 21.8426 30.6176 21.8426 33.5355C21.8426 35.1871 21.4297 36.6598 20.6039 37.9535C19.7781 39.2198 18.6219 40.2108 17.1355 40.9265C15.6766 41.6422 14.0249 42 12.1806 42H2.89032V14.5006ZM10.6942 25.6903C12.0705 25.6903 13.1303 25.3738 13.8735 24.7406C14.6443 24.1075 15.0297 23.2267 15.0297 22.0981C15.0297 20.0611 13.7634 19.0426 11.231 19.0426H8.62968V25.6903H10.6942ZM11.2723 37.4168C12.7587 37.4168 13.9148 37.0727 14.7406 36.3845C15.594 35.6963 16.0206 34.7742 16.0206 33.6181C16.0206 32.572 15.6628 31.76 14.9471 31.1819C14.2314 30.6039 13.1991 30.3148 11.8503 30.3148H8.62968V37.4168H11.2723ZM24.6374 37.0039H28.3948V16.8129H24.8439V11.8581H34.2168V37.0039H37.9742V42H24.6374V37.0039ZM51.14 42.6194C48.9929 42.6194 47.0935 42.1514 45.4419 41.2155C43.8178 40.2796 42.5516 38.972 41.6432 37.2929C40.7348 35.5862 40.2806 33.6181 40.2806 31.3884C40.2806 29.1587 40.7211 27.2043 41.6019 25.5252C42.5103 23.8185 43.7766 22.4972 45.4006 21.5613C47.0523 20.6254 48.9516 20.1574 51.0987 20.1574C53.2458 20.1574 55.1314 20.6254 56.7555 21.5613C58.4071 22.4697 59.6733 23.7634 60.5542 25.4426C61.4626 27.1217 61.9168 29.0624 61.9168 31.2645C61.9168 33.4942 61.4626 35.4761 60.5542 37.2103C59.6733 38.917 58.4071 40.252 56.7555 41.2155C55.1314 42.1514 53.2596 42.6194 51.14 42.6194ZM51.0987 37.5819C52.5852 37.5819 53.7688 37.0176 54.6497 35.889C55.5581 34.7329 56.0123 33.2189 56.0123 31.3471C56.0123 29.4753 55.5581 27.9888 54.6497 26.8877C53.7688 25.7591 52.5852 25.1948 51.0987 25.1948C49.6123 25.1948 48.4148 25.7591 47.5065 26.8877C46.6256 27.9888 46.1852 29.4753 46.1852 31.3471C46.1852 33.2189 46.6256 34.7329 47.5065 35.889C48.4148 37.0176 49.6123 37.5819 51.0987 37.5819ZM76.3435 42.6194C72.8201 42.6194 70.0812 41.6834 68.1268 39.8116C66.1999 37.9398 65.2365 35.2972 65.2365 31.8839C65.2365 29.5716 65.6906 27.5346 66.599 25.7729C67.5074 23.9837 68.7874 22.6073 70.439 21.6439C72.0906 20.6529 74.0038 20.1574 76.1784 20.1574C77.1969 20.1574 78.2567 20.2813 79.3577 20.529C80.4863 20.7492 81.3534 21.0108 81.959 21.3135L80.8442 26.2271C80.2111 25.9243 79.5091 25.6903 78.7384 25.5252C77.9952 25.3325 77.2932 25.2361 76.6326 25.2361C74.9259 25.2361 73.5496 25.8142 72.5035 26.9703C71.4851 28.1265 70.9758 29.6542 70.9758 31.5535C70.9758 33.4804 71.4988 34.9669 72.5448 36.0129C73.6184 37.0589 75.1324 37.5819 77.0868 37.5819C78.3805 37.5819 79.7706 37.3342 81.2571 36.8387L82.1242 41.5458C80.3349 42.2615 78.4081 42.6194 76.3435 42.6194ZM92.0945 32.751V42H86.2726V11.8168H92.0945V28.4981L98.7423 20.7355H105.638L97.1319 30.2735L106.092 41.7523L99.7745 42.6194L92.0945 32.751ZM112.19 51.249C110.924 51.249 109.602 50.9462 108.226 50.3406L109.093 45.551C110.139 46.074 111.02 46.3355 111.736 46.3355C112.589 46.3355 113.222 46.0602 113.635 45.5097C114.076 44.9591 114.544 43.9957 115.039 42.6194L106.74 20.8181L112.768 20.3226L117.847 35.5587L122.554 20.7355H128.293C126.532 26.0757 124.673 31.3333 122.719 36.5084C120.792 41.6834 119.292 45.2344 118.218 47.1613C117.448 48.5376 116.581 49.5561 115.617 50.2168C114.681 50.9049 113.539 51.249 112.19 51.249Z" fill="white"/>
<rect x="129.032" y="34.1935" width="8.06452" height="8.06452" fill="currentColor"/>
</svg>
