<svg width="100" height="100" viewBox="0 0 100 100" fill="none" xmlns="http://www.w3.org/2000/svg">
<path fill-rule="evenodd" clip-rule="evenodd" d="M73.4932 49.7466C73.4932 62.8615 62.8615 73.4932 49.7466 73.4932C36.6317 73.4932 26 62.8615 26 49.7466C26 36.6317 36.6317 26 49.7466 26C62.8615 26 73.4932 36.6317 73.4932 49.7466ZM57.6622 35.4985C57.6622 39.8702 54.1183 43.4141 49.7466 43.4141C45.375 43.4141 41.8311 39.8702 41.8311 35.4985C41.8311 31.1269 45.375 27.583 49.7466 27.583C54.1183 27.583 57.6622 31.1269 57.6622 35.4985ZM49.7466 71.91C54.1183 71.91 57.6622 68.3661 57.6622 63.9945C57.6622 59.6228 54.1183 56.0789 49.7466 56.0789C45.375 56.0789 41.8311 59.6228 41.8311 63.9945C41.8311 68.3661 45.375 71.91 49.7466 71.91ZM71.9101 49.7465C71.9101 54.1181 68.3662 57.662 63.9946 57.662C59.623 57.662 56.0791 54.1181 56.0791 49.7465C56.0791 45.3749 59.623 41.831 63.9946 41.831C68.3662 41.831 71.9101 45.3749 71.9101 49.7465ZM35.4987 57.662C39.8703 57.662 43.4142 54.1181 43.4142 49.7465C43.4142 45.3749 39.8703 41.831 35.4987 41.831C31.127 41.831 27.5831 45.3749 27.5831 49.7465C27.5831 54.1181 31.127 57.662 35.4987 57.662Z" fill="#FFC482"/>
<path d="M43.0184 49.7466C43.0184 53.0253 40.3605 55.6833 37.0817 55.6833C33.803 55.6833 31.1451 53.0253 31.1451 49.7466C31.1451 46.4679 33.803 43.81 37.0817 43.81C40.3605 43.81 43.0184 46.4679 43.0184 49.7466Z" fill="#FFC482" fill-opacity="0.7"/>
</svg>
