<svg width="159" height="159" viewBox="0 0 159 159" fill="none" xmlns="http://www.w3.org/2000/svg">
<path fill-rule="evenodd" clip-rule="evenodd" d="M158.645 79.3151C158.645 123.12 123.135 158.63 79.3302 158.63C35.5257 158.63 0.0151367 123.12 0.0151367 79.3151C0.0151367 35.5106 35.5257 0 79.3302 0C123.135 0 158.645 35.5106 158.645 79.3151ZM105.769 31.7256C105.769 46.3271 93.9318 58.164 79.3303 58.164C64.7288 58.164 52.8919 46.3271 52.8919 31.7256C52.8919 17.1241 64.7288 5.28726 79.3303 5.28726C93.9318 5.28726 105.769 17.1241 105.769 31.7256ZM79.3303 153.342C93.9318 153.342 105.769 141.505 105.769 126.904C105.769 112.302 93.9318 100.465 79.3303 100.465C64.7288 100.465 52.8919 112.302 52.8919 126.904C52.8919 141.505 64.7288 153.342 79.3303 153.342ZM153.358 79.3147C153.358 93.9162 141.521 105.753 126.919 105.753C112.318 105.753 100.481 93.9162 100.481 79.3147C100.481 64.7132 112.318 52.8763 126.919 52.8763C141.521 52.8763 153.358 64.7132 153.358 79.3147ZM31.7412 105.753C46.3427 105.753 58.1796 93.9162 58.1796 79.3147C58.1796 64.7132 46.3427 52.8763 31.7412 52.8763C17.1397 52.8763 5.30288 64.7132 5.30288 79.3147C5.30288 93.9162 17.1397 105.753 31.7412 105.753Z" fill="#FFC482"/>
<path d="M56.8577 79.3154C56.8577 90.2666 47.9801 99.1442 37.029 99.1442C26.0778 99.1442 17.2002 90.2666 17.2002 79.3154C17.2002 68.3643 26.0778 59.4867 37.029 59.4867C47.9801 59.4867 56.8577 68.3643 56.8577 79.3154Z" fill="#FFC482" fill-opacity="0.7"/>
<path d="M141.46 79.3154C141.46 90.2666 132.583 99.1442 121.632 99.1442C110.681 99.1442 101.803 90.2666 101.803 79.3154C101.803 68.3643 110.681 59.4867 121.632 59.4867C132.583 59.4867 141.46 68.3643 141.46 79.3154Z" fill="#FFC482" fill-opacity="0.7"/>
<path d="M99.1591 37.0141C99.1591 47.9652 90.2815 56.8428 79.3303 56.8428C68.3792 56.8428 59.5016 47.9652 59.5016 37.0141C59.5016 26.0629 68.3792 17.1853 79.3303 17.1853C90.2815 17.1853 99.1591 26.0629 99.1591 37.0141Z" fill="#FFC482" fill-opacity="0.7"/>
</svg>
