<svg width="159" height="159" viewBox="0 0 159 159" fill="none" xmlns="http://www.w3.org/2000/svg">
<path fill-rule="evenodd" clip-rule="evenodd" d="M158.645 79.3151C158.645 123.12 123.135 158.63 79.3302 158.63C35.5257 158.63 0.0151367 123.12 0.0151367 79.3151C0.0151367 35.5106 35.5257 0 79.3302 0C123.135 0 158.645 35.5106 158.645 79.3151ZM105.769 31.7256C105.769 46.3271 93.9318 58.164 79.3303 58.164C64.7288 58.164 52.892 46.3271 52.892 31.7256C52.892 17.1241 64.7288 5.28726 79.3303 5.28726C93.9318 5.28726 105.769 17.1241 105.769 31.7256ZM79.3303 153.342C93.9318 153.342 105.769 141.505 105.769 126.904C105.769 112.302 93.9318 100.465 79.3303 100.465C64.7288 100.465 52.892 112.302 52.892 126.904C52.892 141.505 64.7288 153.342 79.3303 153.342ZM153.358 79.3147C153.358 93.9162 141.521 105.753 126.919 105.753C112.318 105.753 100.481 93.9162 100.481 79.3147C100.481 64.7132 112.318 52.8763 126.919 52.8763C141.521 52.8763 153.358 64.7132 153.358 79.3147ZM31.7413 105.753C46.3428 105.753 58.1797 93.9162 58.1797 79.3147C58.1797 64.7132 46.3428 52.8763 31.7413 52.8763C17.1398 52.8763 5.30293 64.7132 5.30293 79.3147C5.30293 93.9162 17.1398 105.753 31.7413 105.753Z" fill="#FFC482"/>
<path d="M56.8575 79.3154C56.8575 90.2666 47.9799 99.1442 37.0288 99.1442C26.0776 99.1442 17.2 90.2666 17.2 79.3154C17.2 68.3643 26.0776 59.4867 37.0288 59.4867C47.9799 59.4867 56.8575 68.3643 56.8575 79.3154Z" fill="#FFC482" fill-opacity="0.7"/>
<path d="M99.1589 121.617C99.1589 132.568 90.2813 141.446 79.3301 141.446C68.379 141.446 59.5014 132.568 59.5014 121.617C59.5014 110.666 68.379 101.788 79.3301 101.788C90.2813 101.788 99.1589 110.666 99.1589 121.617Z" fill="#FFC482" fill-opacity="0.7"/>
<path d="M141.46 79.3154C141.46 90.2666 132.583 99.1442 121.632 99.1442C110.68 99.1442 101.803 90.2666 101.803 79.3154C101.803 68.3643 110.68 59.4867 121.632 59.4867C132.583 59.4867 141.46 68.3643 141.46 79.3154Z" fill="#FFC482" fill-opacity="0.7"/>
<path d="M99.1589 37.0141C99.1589 47.9652 90.2813 56.8428 79.3301 56.8428C68.379 56.8428 59.5014 47.9652 59.5014 37.0141C59.5014 26.0629 68.379 17.1853 79.3301 17.1853C90.2813 17.1853 99.1589 26.0629 99.1589 37.0141Z" fill="#FFC482" fill-opacity="0.7"/>
</svg>
