<svg width="100" height="100" viewBox="0 0 100 100" fill="none" xmlns="http://www.w3.org/2000/svg">
<path fill-rule="evenodd" clip-rule="evenodd" d="M73.4932 49.7466C73.4932 62.8615 62.8615 73.4932 49.7466 73.4932C36.6317 73.4932 26 62.8615 26 49.7466C26 36.6317 36.6317 26 49.7466 26C62.8615 26 73.4932 36.6317 73.4932 49.7466ZM57.6622 35.4985C57.6622 39.8702 54.1183 43.4141 49.7467 43.4141C45.375 43.4141 41.8311 39.8702 41.8311 35.4985C41.8311 31.1269 45.375 27.583 49.7467 27.583C54.1183 27.583 57.6622 31.1269 57.6622 35.4985ZM49.7467 71.91C54.1183 71.91 57.6622 68.3661 57.6622 63.9945C57.6622 59.6228 54.1183 56.0789 49.7467 56.0789C45.375 56.0789 41.8311 59.6228 41.8311 63.9945C41.8311 68.3661 45.375 71.91 49.7467 71.91ZM71.9102 49.7465C71.9102 54.1181 68.3663 57.662 63.9946 57.662C59.623 57.662 56.0791 54.1181 56.0791 49.7465C56.0791 45.3749 59.623 41.831 63.9946 41.831C68.3663 41.831 71.9102 45.3749 71.9102 49.7465ZM35.4987 57.662C39.8703 57.662 43.4142 54.1181 43.4142 49.7465C43.4142 45.3749 39.8703 41.831 35.4987 41.831C31.1271 41.831 27.5831 45.3749 27.5831 49.7465C27.5831 54.1181 31.1271 57.662 35.4987 57.662Z" fill="#FFC482"/>
<path d="M43.0184 49.7467C43.0184 53.0255 40.3605 55.6834 37.0817 55.6834C33.803 55.6834 31.1451 53.0255 31.1451 49.7467C31.1451 46.468 33.803 43.8101 37.0817 43.8101C40.3605 43.8101 43.0184 46.468 43.0184 49.7467Z" fill="#FFC482" fill-opacity="0.7"/>
<path d="M55.6833 62.4116C55.6833 65.6903 53.0253 68.3483 49.7466 68.3483C46.4679 68.3483 43.8099 65.6903 43.8099 62.4116C43.8099 59.1329 46.4679 56.4749 49.7466 56.4749C53.0253 56.4749 55.6833 59.1329 55.6833 62.4116Z" fill="#FFC482" fill-opacity="0.7"/>
<path d="M68.3481 49.7467C68.3481 53.0255 65.6902 55.6834 62.4115 55.6834C59.1327 55.6834 56.4748 53.0255 56.4748 49.7467C56.4748 46.468 59.1327 43.8101 62.4115 43.8101C65.6902 43.8101 68.3481 46.468 68.3481 49.7467Z" fill="#FFC482" fill-opacity="0.7"/>
<path d="M55.6833 37.0819C55.6833 40.3606 53.0253 43.0185 49.7466 43.0185C46.4679 43.0185 43.8099 40.3606 43.8099 37.0819C43.8099 33.8031 46.4679 31.1452 49.7466 31.1452C53.0253 31.1452 55.6833 33.8031 55.6833 37.0819Z" fill="#FFC482" fill-opacity="0.7"/>
</svg>
