<svg width="159" height="159" viewBox="0 0 159 159" fill="none" xmlns="http://www.w3.org/2000/svg">
<path fill-rule="evenodd" clip-rule="evenodd" d="M158.645 79.3151C158.645 123.12 123.135 158.63 79.3302 158.63C35.5257 158.63 0.0151367 123.12 0.0151367 79.3151C0.0151367 35.5106 35.5257 0 79.3302 0C123.135 0 158.645 35.5106 158.645 79.3151ZM105.769 31.7256C105.769 46.3271 93.9317 58.164 79.3302 58.164C64.7287 58.164 52.8919 46.3271 52.8919 31.7256C52.8919 17.1241 64.7287 5.28726 79.3302 5.28726C93.9317 5.28726 105.769 17.1241 105.769 31.7256ZM79.3302 153.342C93.9317 153.342 105.769 141.505 105.769 126.904C105.769 112.302 93.9317 100.465 79.3302 100.465C64.7287 100.465 52.8919 112.302 52.8919 126.904C52.8919 141.505 64.7287 153.342 79.3302 153.342ZM153.358 79.3147C153.358 93.9162 141.521 105.753 126.919 105.753C112.318 105.753 100.481 93.9162 100.481 79.3147C100.481 64.7132 112.318 52.8763 126.919 52.8763C141.521 52.8763 153.358 64.7132 153.358 79.3147ZM31.7412 105.753C46.3427 105.753 58.1795 93.9162 58.1795 79.3147C58.1795 64.7132 46.3427 52.8763 31.7412 52.8763C17.1397 52.8763 5.30282 64.7132 5.30282 79.3147C5.30282 93.9162 17.1397 105.753 31.7412 105.753Z" fill="#FFC482"/>
<path d="M56.8576 79.3151C56.8576 90.2662 47.9799 99.1438 37.0288 99.1438C26.0777 99.1438 17.2 90.2662 17.2 79.3151C17.2 68.364 26.0777 59.4863 37.0288 59.4863C47.9799 59.4863 56.8576 68.364 56.8576 79.3151Z" fill="#FFC482" fill-opacity="0.7"/>
</svg>
