<svg width="100" height="100" viewBox="0 0 100 100" fill="none" xmlns="http://www.w3.org/2000/svg">
<path d="M50.0356 66.0096C52.4973 66.0096 54.4929 64.014 54.4929 61.5523C54.4929 59.0906 52.4973 57.095 50.0356 57.095C47.5739 57.095 45.5783 59.0906 45.5783 61.5523C45.5783 64.014 47.5739 66.0096 50.0356 66.0096Z" fill="#496A81"/>
<path fill-rule="evenodd" clip-rule="evenodd" d="M31.9562 74.9758C29.2112 74.9758 27.4956 72.0043 28.8681 69.6271L50 33.0256L71.1319 69.6272C72.4995 71.9958 70.8011 74.9545 68.0734 74.9758H31.9562ZM68.0734 74.9758L81.427 74.9758C84.6493 74.9758 86.2189 71.0408 83.8812 68.8231L66.6981 52.5217C66.1977 52.047 65.8458 51.4374 65.6849 50.7667L60.159 27.7351C59.4073 24.6017 55.2146 23.9935 53.6035 26.7841L50 33.0256L46.3965 26.7842C44.7854 23.9936 40.5927 24.6019 39.841 27.7352L34.3151 50.7668C34.1542 51.4375 33.8023 52.0472 33.3019 52.5219L16.1188 68.8232C13.7811 71.0409 15.3507 74.9759 18.573 74.9759L68.0438 74.9759C68.0537 74.9759 68.0636 74.9759 68.0734 74.9758Z" fill="#496A81"/>
</svg>
