<svg width="100" height="100" viewBox="0 0 100 100" fill="none" xmlns="http://www.w3.org/2000/svg">
<path d="M45.5592 69.0532C45.5592 71.5149 47.5548 73.5105 50.0165 73.5105C52.4782 73.5105 54.4738 71.5149 54.4738 69.0532C54.4738 66.5915 52.4782 64.5958 50.0165 64.5958C47.5548 64.5958 45.5592 66.5915 45.5592 69.0532Z" fill="#496A81"/>
<path d="M39.7647 67.716C37.303 67.716 35.3074 65.7204 35.3074 63.2587C35.3074 60.797 37.303 58.8013 39.7647 58.8013C42.2264 58.8013 44.222 60.797 44.222 63.2587C44.222 65.7204 42.2264 67.716 39.7647 67.716Z" fill="#496A81"/>
<path d="M55.811 63.2587C55.811 65.7204 57.8066 67.716 60.2683 67.716C62.73 67.716 64.7256 65.7204 64.7256 63.2587C64.7256 60.797 62.73 58.8013 60.2683 58.8013C57.8066 58.8013 55.811 60.797 55.811 63.2587Z" fill="#496A81"/>
<path fill-rule="evenodd" clip-rule="evenodd" d="M31.9562 74.976C29.2112 74.976 27.4956 72.0044 28.8681 69.6272L50 33.0256L71.1319 69.6272C72.5018 71.9999 70.7954 74.9645 68.0597 74.976H31.9562ZM68.0597 74.976L81.427 74.976C84.6493 74.976 86.2189 71.0409 83.8812 68.8232L66.6981 52.5219C66.1977 52.0472 65.8458 51.4375 65.6848 50.7668L60.159 27.7352C59.4072 24.6018 55.2146 23.9936 53.6035 26.7842L50 33.0256L46.3965 26.7842C44.7854 23.9937 40.5928 24.6019 39.841 27.7352L34.3152 50.7669C34.1542 51.4376 33.8023 52.0472 33.3019 52.5219L16.1188 68.8232C13.7811 71.041 15.3507 74.976 18.573 74.976H68.0438L68.0597 74.976Z" fill="#496A81"/>
</svg>
