<svg width="218" height="163" viewBox="0 0 218 163" fill="none" xmlns="http://www.w3.org/2000/svg">
<path d="M55.2422 13.435C53.1352 5.57148 60.3308 -1.62412 68.1943 0.482903L109.161 11.46L58.3603 25.0721L55.2422 13.435Z" fill="#B3AF8F"/>
<path fill-rule="evenodd" clip-rule="evenodd" d="M82.3891 114.749L72.0665 95.7301C71.0907 93.9323 69.6145 92.4561 67.8167 91.4803L6.08005 57.9718C-2.319 53.413 -0.843123 40.9356 8.38771 38.4622L58.3603 25.0721L82.3891 114.749ZM37.5791 67.5065C44.8798 67.5065 50.7983 61.588 50.7983 54.2873C50.7983 46.9865 44.8798 41.0681 37.5791 41.0681C30.2783 41.0681 24.3599 46.9865 24.3599 54.2873C24.3599 61.588 30.2783 67.5065 37.5791 67.5065Z" fill="#B3AF8F"/>
<path d="M109.145 161.356C103.538 164.948 95.1897 162.521 93.2154 155.153L82.3891 114.749L105.575 157.467C106.493 159.158 107.732 160.449 109.145 161.356Z" fill="#B3AF8F"/>
<path d="M135.917 114.731L125.085 155.159C123.109 162.531 114.753 164.957 109.145 161.356C110.563 160.448 111.805 159.155 112.725 157.461L135.917 114.731Z" fill="#B3AF8F"/>
<path fill-rule="evenodd" clip-rule="evenodd" d="M159.943 25.0668L209.912 38.4561C219.143 40.9295 220.619 53.4069 212.22 57.9656L150.483 91.4742C148.685 92.45 147.209 93.9262 146.233 95.724L135.917 114.731L159.943 25.0668ZM192.509 54.2873C192.509 61.588 186.591 67.5065 179.29 67.5065C171.989 67.5065 166.071 61.588 166.071 54.2873C166.071 46.9865 171.989 41.0681 179.29 41.0681C186.591 41.0681 192.509 46.9865 192.509 54.2873Z" fill="#B3AF8F"/>
<path d="M159.943 25.0668L163.058 13.4411C165.165 5.57761 157.969 -1.61801 150.106 0.489014L109.161 11.46L159.943 25.0668Z" fill="#B3AF8F"/>
<path d="M108.435 67.5065C115.736 67.5065 121.655 61.588 121.655 54.2873C121.655 46.9865 115.736 41.0681 108.435 41.0681C101.135 41.0681 95.2162 46.9865 95.2162 54.2873C95.2162 61.588 101.135 67.5065 108.435 67.5065Z" fill="#B3AF8F"/>
</svg>
