<svg width="208" height="149" viewBox="0 0 208 149" fill="none" xmlns="http://www.w3.org/2000/svg">
<path fill-rule="evenodd" clip-rule="evenodd" d="M41.3526 133.096C37.2821 140.146 42.3702 148.959 50.5111 148.959L157.585 148.959L157.538 148.959L10.8202 148.959C1.26379 148.959 -3.39117 137.288 3.5418 130.711L54.5022 82.3658C55.9862 80.9579 57.03 79.1499 57.5072 77.1609L73.8954 8.85518C76.1249 -0.437563 88.5592 -2.24137 93.3374 6.03476L104.024 24.545L41.3526 133.096ZM104.024 24.545L114.711 6.03466C119.489 -2.24148 131.924 -0.437654 134.153 8.85509L150.541 77.1608C151.019 79.1498 152.062 80.9578 153.546 82.3657L204.507 130.711C211.44 137.288 206.785 148.959 197.228 148.959L157.585 148.959C165.698 148.925 170.759 140.132 166.696 133.096L104.024 24.545Z" fill="#496A81"/>
<path d="M119.275 94.5113C126.576 94.5113 132.494 100.43 132.494 107.73C132.494 115.031 126.576 120.95 119.275 120.95C111.974 120.95 106.056 115.031 106.056 107.73C106.056 100.43 111.974 94.5113 119.275 94.5113Z" fill="#496A81"/>
<path d="M102.09 107.73C102.09 100.43 96.1717 94.5113 88.8709 94.5113C81.5702 94.5113 75.6518 100.43 75.6518 107.73C75.6518 115.031 81.5702 120.95 88.8709 120.95C96.1717 120.95 102.09 115.031 102.09 107.73Z" fill="#496A81"/>
</svg>
