<svg width="218" height="164" viewBox="0 0 218 164" fill="none" xmlns="http://www.w3.org/2000/svg">
<path d="M55.1353 13.4594C53.0283 5.5959 60.2239 -1.5997 68.0874 0.507317L109.051 11.4836L58.2531 25.095L55.1353 13.4594Z" fill="#B3AF8F"/>
<path d="M82.2817 114.771L58.2531 25.095L8.28053 38.4851C-0.950301 40.9585 -2.42618 53.4359 5.97287 57.9946L67.7095 91.5032C69.5073 92.4789 70.9835 93.9552 71.9593 95.7529L82.2817 114.771Z" fill="#B3AF8F"/>
<path d="M109.039 161.38C107.625 160.472 106.386 159.181 105.468 157.49L82.2817 114.771L93.1086 155.177C95.083 162.546 103.432 164.973 109.039 161.38Z" fill="#B3AF8F"/>
<path d="M135.809 114.758L112.618 157.485C111.698 159.179 110.456 160.472 109.039 161.38C114.647 164.98 123.002 162.554 124.977 155.182L135.809 114.758Z" fill="#B3AF8F"/>
<path d="M159.835 25.091L109.051 11.4836L149.999 0.511875C157.862 -1.59515 165.058 5.60047 162.951 13.464L159.835 25.091Z" fill="#B3AF8F"/>
<path d="M159.835 25.091L135.809 114.758L146.127 95.7484C147.102 93.9506 148.579 92.4744 150.376 91.4986L212.113 57.99C220.512 53.4313 219.036 40.9539 209.805 38.4805L159.835 25.091Z" fill="#B3AF8F"/>
<path d="M109.148 69.2996C116.449 69.2996 122.367 63.3812 122.367 56.0804C122.367 48.7797 116.449 42.8612 109.148 42.8612C101.847 42.8612 95.929 48.7797 95.929 56.0804C95.929 63.3812 101.847 69.2996 109.148 69.2996Z" fill="#B3AF8F"/>
</svg>
