<svg width="169" height="150" viewBox="0 0 169 150" fill="none" xmlns="http://www.w3.org/2000/svg">
<path d="M93.1713 143.745C89.1008 150.795 78.9247 150.795 74.8543 143.745L68.3248 132.436L81.0078 128.677C82.969 128.096 85.0566 128.096 87.0178 128.677L99.7007 132.436L93.1713 143.745Z" fill="#66999B"/>
<path d="M132.892 74.9471L166.53 133.21C171.308 141.486 163.529 151.353 154.366 148.637L99.7007 132.436L132.892 74.9471Z" fill="#66999B"/>
<path fill-rule="evenodd" clip-rule="evenodd" d="M99.7007 17.4585L93.1713 6.14922C89.1009 -0.901007 78.9247 -0.901018 74.8543 6.14921L68.3249 17.4585L13.6592 1.25709C4.49668 -1.45843 -3.2826 8.40802 1.49563 16.6842L35.1338 74.9471L1.49567 133.21C-3.28256 141.486 4.49671 151.353 13.6592 148.637L68.3248 132.436L35.1338 74.9471L68.3249 17.4585L81.0077 21.2174C82.9689 21.7986 85.0566 21.7986 87.0178 21.2174L99.7007 17.4585ZM99.7007 17.4585L154.366 1.25708C163.529 -1.45845 171.308 8.40802 166.53 16.6842L132.892 74.9471L99.7007 17.4585Z" fill="#66999B"/>
<path d="M84.1172 88.1083C91.4179 88.1083 97.3364 82.1898 97.3364 74.8891C97.3364 67.5883 91.4179 61.6699 84.1172 61.6699C76.8164 61.6699 70.898 67.5883 70.898 74.8891C70.898 82.1898 76.8164 88.1083 84.1172 88.1083Z" fill="#66999B"/>
<path d="M168.191 74.8891C168.191 82.1898 162.273 88.1083 154.972 88.1083C147.671 88.1083 141.753 82.1898 141.753 74.8891C141.753 67.5883 147.671 61.6699 154.972 61.6699C162.273 61.6699 168.191 67.5883 168.191 74.8891Z" fill="#66999B"/>
<path d="M13.2624 88.1083C20.5631 88.1083 26.4816 82.1898 26.4816 74.8891C26.4816 67.5883 20.5631 61.6699 13.2624 61.6699C5.96164 61.6699 0.0432129 67.5883 0.0432129 74.8891C0.0432129 82.1898 5.96164 88.1083 13.2624 88.1083Z" fill="#66999B"/>
</svg>
