<svg width="169" height="152" viewBox="0 0 169 152" fill="none" xmlns="http://www.w3.org/2000/svg">
<path d="M93.5678 143.112C89.4973 150.162 79.3212 150.162 75.2507 143.112L70.4159 134.738L81.4046 131.481C83.3658 130.9 85.4535 130.9 87.4147 131.481L98.4028 134.738L93.5678 143.112Z" fill="#66999B"/>
<path d="M132.296 76.0325L98.4028 134.738L154.763 151.441C163.926 154.157 171.705 144.291 166.927 136.014L132.296 76.0325Z" fill="#66999B"/>
<path fill-rule="evenodd" clip-rule="evenodd" d="M98.4031 17.3278L87.4143 20.5846C85.4531 21.1658 83.3654 21.1658 81.4042 20.5846L70.4162 17.328L75.2512 8.95352C79.3216 1.90329 89.4977 1.9033 93.5682 8.95353L98.4031 17.3278ZM98.4031 17.3278L132.296 76.0325L166.926 16.0513C171.705 7.77521 163.925 -2.09126 154.763 0.624265L98.4031 17.3278Z" fill="#66999B"/>
<path d="M36.5227 76.0332L70.4159 134.738L14.0561 151.441C4.89357 154.157 -2.88569 144.291 1.89253 136.014L36.5227 76.0332Z" fill="#66999B"/>
<path d="M36.5227 76.0332L70.4162 17.328L14.0557 0.624277C4.89316 -2.09125 -2.88612 7.7752 1.89211 16.0513L36.5227 76.0332Z" fill="#66999B"/>
<path d="M84.5142 90.9124C91.8149 90.9124 97.7333 84.994 97.7333 77.6933C97.7333 70.3925 91.8149 64.4741 84.5142 64.4741C77.2134 64.4741 71.295 70.3925 71.295 77.6933C71.295 84.994 77.2134 90.9124 84.5142 90.9124Z" fill="#66999B"/>
</svg>
