<svg width="209" height="149" viewBox="0 0 209 149" fill="none" xmlns="http://www.w3.org/2000/svg">
<path d="M91.3878 131.374C91.3878 138.675 97.3063 144.593 104.607 144.593C111.908 144.593 117.826 138.675 117.826 131.374C117.826 124.073 111.908 118.155 104.607 118.155C97.3063 118.155 91.3878 124.073 91.3878 131.374Z" fill="#496A81"/>
<path d="M74.2029 127.408C66.9022 127.408 60.9837 121.49 60.9837 114.189C60.9837 106.888 66.9022 100.97 74.2029 100.97C81.5037 100.97 87.4221 106.888 87.4221 114.189C87.4221 121.49 81.5037 127.408 74.2029 127.408Z" fill="#496A81"/>
<path d="M121.792 114.189C121.792 121.49 127.71 127.408 135.011 127.408C142.312 127.408 148.23 121.49 148.23 114.189C148.23 106.888 142.312 100.97 135.011 100.97C127.71 100.97 121.792 106.888 121.792 114.189Z" fill="#496A81"/>
<path fill-rule="evenodd" clip-rule="evenodd" d="M51.0448 148.94C42.9039 148.94 37.8159 140.127 41.8863 133.077L104.558 24.5259L167.23 133.077C171.292 140.113 166.232 148.906 158.118 148.939L51.0448 148.94ZM158.118 148.939L197.762 148.939C207.319 148.939 211.973 137.269 205.041 130.692L154.08 82.3466C152.596 80.9388 151.552 79.1308 151.075 77.1417L134.687 8.83604C132.457 -0.456697 120.023 -2.26052 115.245 6.01561L104.558 24.5259L93.8711 6.01572C89.0928 -2.26041 76.6586 -0.456606 74.4291 8.83613L58.0409 77.1418C57.5637 79.1309 56.5199 80.9389 55.0359 82.3467L4.0755 130.692C-2.85748 137.269 1.79748 148.94 11.3539 148.94L158.071 148.94L158.118 148.939Z" fill="#496A81"/>
</svg>
