<svg width="218" height="163" viewBox="0 0 218 163" fill="none" xmlns="http://www.w3.org/2000/svg">
<path fill-rule="evenodd" clip-rule="evenodd" d="M67.6381 0.482415C59.7746 -1.6246 52.579 5.57099 54.686 13.4345L57.8097 25.0925L7.92067 38.4602C-1.31016 40.9336 -2.78604 53.411 5.61301 57.9697L67.3497 91.4783C69.1475 92.454 70.6237 93.9303 71.5994 95.728L81.7452 114.421L92.6592 155.152C94.6389 162.541 103.027 164.961 108.635 161.326C114.242 164.968 122.637 162.548 124.618 155.157L135.536 114.407L145.677 95.7235C146.653 93.9257 148.129 92.4495 149.927 91.4737L211.664 57.9651C220.063 53.4064 218.587 40.929 209.356 38.4556L159.469 25.0885L162.591 13.4391C164.698 5.57557 157.502 -1.62005 149.639 0.486973L108.647 11.4707L67.6381 0.482415ZM108.647 11.4707L159.469 25.0885L135.536 114.407L112.169 157.46C111.259 159.137 110.033 160.42 108.635 161.326C107.239 160.42 106.016 159.138 105.108 157.465L81.7452 114.421L57.8097 25.0925L108.647 11.4707ZM51.1555 54.286C51.1555 61.5868 45.2371 67.5052 37.9363 67.5052C30.6356 67.5052 24.7171 61.5868 24.7171 54.286C24.7171 46.9853 30.6356 41.0668 37.9363 41.0668C45.2371 41.0668 51.1555 46.9853 51.1555 54.286ZM179.382 67.5052C186.682 67.5052 192.601 61.5868 192.601 54.286C192.601 46.9853 186.682 41.0668 179.382 41.0668C172.081 41.0668 166.162 46.9853 166.162 54.286C166.162 61.5868 172.081 67.5052 179.382 67.5052Z" fill="#B3AF8F"/>
</svg>
