<svg width="209" height="150" viewBox="0 0 209 150" fill="none" xmlns="http://www.w3.org/2000/svg">
<path d="M104.515 122.611C111.815 122.611 117.734 116.693 117.734 109.392C117.734 102.091 111.815 96.1729 104.515 96.1729C97.2139 96.1729 91.2955 102.091 91.2955 109.392C91.2955 116.693 97.2139 122.611 104.515 122.611Z" fill="#496A81"/>
<path fill-rule="evenodd" clip-rule="evenodd" d="M50.896 149.203C42.7551 149.203 37.6671 140.39 41.7375 133.34L104.409 24.7894L167.081 133.34C171.137 140.365 166.1 149.14 158.01 149.203L50.896 149.203ZM158.01 149.203L197.613 149.203C207.17 149.203 211.825 137.532 204.892 130.955L153.931 82.6098C152.447 81.202 151.404 79.394 150.926 77.4049L134.538 9.09923C132.309 -0.193513 119.874 -1.99734 115.096 6.2788L104.409 24.7894L93.7222 6.27916C88.9439 -1.99698 76.5097 -0.193171 74.2801 9.09957L57.892 77.4053C57.4148 79.3943 56.3709 81.2023 54.887 82.6101L3.92657 130.956C-3.0064 137.533 1.64855 149.203 11.205 149.203L157.922 149.203C157.952 149.203 157.981 149.203 158.01 149.203Z" fill="#496A81"/>
</svg>
