<svg width="169" height="150" viewBox="0 0 169 150" fill="none" xmlns="http://www.w3.org/2000/svg">
<path fill-rule="evenodd" clip-rule="evenodd" d="M75.5737 143.757C79.6442 150.807 89.8203 150.807 93.8908 143.757L100.42 132.448L155.086 148.649C164.248 151.365 172.028 141.498 167.25 133.222L133.611 74.9592L167.249 16.6964C172.028 8.42023 164.248 -1.44624 155.086 1.26928L100.42 17.4707L93.8909 6.16143C89.8204 -0.8888 79.6443 -0.888811 75.5739 6.16142L69.0444 17.4707L14.3787 1.2693C5.21616 -1.44623 -2.56312 8.42022 2.21511 16.6964L35.8533 74.9594L2.21525 133.222C-2.56298 141.498 5.21629 151.365 14.3788 148.649L69.0443 132.448L75.5737 143.757ZM69.0443 132.448L35.8533 74.9594L69.0444 17.4707L81.7272 21.2296C83.6884 21.8108 85.7761 21.8108 87.7373 21.2296L100.42 17.4707L133.611 74.9592L100.42 132.448L87.7374 128.689C85.7762 128.108 83.6885 128.108 81.7273 128.689L69.0443 132.448Z" fill="#66999B"/>
<path d="M27.2011 74.9013C27.2011 82.202 21.2826 88.1205 13.9819 88.1205C6.68112 88.1205 0.762695 82.202 0.762695 74.9013C0.762695 67.6005 6.68112 61.6821 13.9819 61.6821C21.2826 61.6821 27.2011 67.6005 27.2011 74.9013Z" fill="#66999B"/>
<path d="M155.427 88.1205C162.728 88.1205 168.646 82.202 168.646 74.9013C168.646 67.6005 162.728 61.6821 155.427 61.6821C148.126 61.6821 142.208 67.6005 142.208 74.9013C142.208 82.202 148.126 88.1205 155.427 88.1205Z" fill="#66999B"/>
</svg>
