<svg width="50" height="50" viewBox="0 0 50 50" fill="none" xmlns="http://www.w3.org/2000/svg">
<rect y="10" width="10" height="10" fill="#00B7D8" fill-opacity="0.5"/>
<rect x="10" width="10" height="10" fill="#00B7D8" fill-opacity="0.5"/>
<rect x="10" y="20" width="10" height="10" fill="#00B7D8"/>
<rect x="20" y="10" width="10" height="10" fill="#00B7D8"/>
<rect x="30" y="10" width="10" height="10" fill="#00B7D8"/>
<rect x="40" y="10" width="10" height="10" fill="#00B7D8"/>
<rect x="40" y="20" width="10" height="10" fill="#00B7D8"/>
<rect x="40" y="40" width="10" height="10" fill="#00B7D8"/>
<rect x="20" y="40" width="10" height="10" fill="#00B7D8"/>
<rect x="10" y="40" width="10" height="10" fill="#00B7D8"/>
<rect x="10" y="30" width="10" height="10" fill="#00B7D8"/>
<rect x="30" y="20" width="10" height="10" fill="#00B7D8"/>
<rect x="30" y="30" width="10" height="10" fill="#00B7D8"/>
<rect x="20" y="20" width="10" height="10" fill="#00B7D8"/>
<rect x="20" y="30" width="10" height="10" fill="#00B7D8"/>
</svg>
