<svg width="100" height="100" viewBox="0 0 100 100" fill="none" xmlns="http://www.w3.org/2000/svg">
<path d="M32.627 28.294C31.9479 25.7598 34.2669 23.4409 36.8011 24.1199L50.0027 27.6573L33.6317 32.0439L32.627 28.294Z" fill="#B3AF8F"/>
<path d="M41.3756 60.9442L33.6317 32.0439L17.5269 36.3592C14.552 37.1563 14.0764 41.1774 16.7832 42.6466L36.6793 53.4455C37.2587 53.76 37.7344 54.2357 38.0489 54.8151L41.3756 60.9442Z" fill="#B3AF8F"/>
<path d="M49.9989 75.965C49.5431 75.6724 49.1437 75.2563 48.8478 74.7112L41.3756 60.9442L44.8648 73.966C45.5011 76.3407 48.1918 77.1229 49.9989 75.965Z" fill="#B3AF8F"/>
<path d="M58.626 60.9398L51.1522 74.7097C50.8558 75.2558 50.4555 75.6723 49.9989 75.965C51.8059 77.125 54.4987 76.3432 55.1352 73.9675L58.626 60.9398Z" fill="#B3AF8F"/>
<path d="M66.369 32.0426L50.0027 27.6573L63.1989 24.1214C65.7331 23.4423 68.0521 25.7613 67.373 28.2955L66.369 32.0426Z" fill="#B3AF8F"/>
<path d="M66.369 32.0426L58.626 60.9398L61.9511 54.8136C62.2656 54.2342 62.7413 53.7585 63.3207 53.444L83.2168 42.6451C85.9236 41.1759 85.448 37.1548 82.4731 36.3577L66.369 32.0426Z" fill="#B3AF8F"/>
<path d="M50.0339 46.2899C52.3867 46.2899 54.2941 44.3825 54.2941 42.0297C54.2941 39.6768 52.3867 37.7695 50.0339 37.7695C47.6811 37.7695 45.7737 39.6768 45.7737 42.0297C45.7737 44.3825 47.6811 46.2899 50.0339 46.2899Z" fill="#B3AF8F"/>
</svg>
