<svg width="100" height="100" viewBox="0 0 100 100" fill="none" xmlns="http://www.w3.org/2000/svg">
<path d="M32.6269 28.294C31.9479 25.7598 34.2668 23.4409 36.801 24.1199L50.0037 27.6575L33.6318 32.0444L32.6269 28.294Z" fill="#B3AF8F"/>
<path fill-rule="evenodd" clip-rule="evenodd" d="M41.3757 60.9448L38.0489 54.8156C37.7345 54.2363 37.2587 53.7605 36.6793 53.446L16.7832 42.6471C14.0764 41.1779 14.552 37.1568 17.5269 36.3597L33.6318 32.0444L41.3757 60.9448ZM26.9345 45.7199C29.2874 45.7199 31.1947 43.8125 31.1947 41.4597C31.1947 39.1068 29.2874 37.1995 26.9345 37.1995C24.5817 37.1995 22.6743 39.1068 22.6743 41.4597C22.6743 43.8125 24.5817 45.7199 26.9345 45.7199Z" fill="#B3AF8F"/>
<path d="M49.9985 75.9653C48.1914 77.1229 45.501 76.3407 44.8647 73.9661L41.3757 60.9448L48.8479 74.7118C49.1437 75.2568 49.5429 75.6727 49.9985 75.9653Z" fill="#B3AF8F"/>
<path d="M58.6264 60.939L55.1353 73.9681C54.4987 76.344 51.8055 77.1258 49.9985 75.9653C50.4553 75.6726 50.8557 75.256 51.1521 74.7098L58.6264 60.939Z" fill="#B3AF8F"/>
<path fill-rule="evenodd" clip-rule="evenodd" d="M66.3692 32.0427L82.4731 36.3577C85.448 37.1548 85.9236 41.176 83.2168 42.6451L63.3207 53.4441C62.7413 53.7585 62.2655 54.2343 61.9511 54.8137L58.6264 60.939L66.3692 32.0427ZM76.8646 41.4597C76.8646 43.8125 74.9572 45.7199 72.6044 45.7199C70.2515 45.7199 68.3442 43.8125 68.3442 41.4597C68.3442 39.1068 70.2515 37.1995 72.6044 37.1995C74.9572 37.1995 76.8646 39.1068 76.8646 41.4597Z" fill="#B3AF8F"/>
<path d="M66.3692 32.0427L67.3731 28.296C68.0521 25.7618 65.7332 23.4428 63.199 24.1219L50.0037 27.6575L66.3692 32.0427Z" fill="#B3AF8F"/>
</svg>
