<svg width="100" height="100" viewBox="0 0 100 100" fill="none" xmlns="http://www.w3.org/2000/svg">
<path fill-rule="evenodd" clip-rule="evenodd" d="M33.3333 25C28.731 25 25 28.7309 25 33.3333V66.6667C25 71.269 28.7309 75 33.3333 75H66.6667C71.269 75 75 71.2691 75 66.6667V33.3333C75 28.731 71.2691 25 66.6667 25H33.3333ZM41 33.5834C40.0795 33.5834 39.3333 34.3296 39.3333 35.25V40.6667C39.3333 41.5872 40.0795 42.3334 41 42.3334H58.9167C59.8372 42.3334 60.5833 41.5872 60.5833 40.6667V35.25C60.5833 34.3296 59.8371 33.5834 58.9167 33.5834H41ZM39.375 47.3334C39.375 46.413 40.1212 45.6668 41.0416 45.6668H58.9583C59.8788 45.6668 60.625 46.413 60.625 47.3334V52.7501C60.625 53.6706 59.8788 54.4168 58.9583 54.4168H41.0416C40.1212 54.4168 39.375 53.6706 39.375 52.7501V47.3334ZM41 57.7501C40.0795 57.7501 39.3333 58.4963 39.3333 59.4168V64.8334C39.3333 65.7539 40.0795 66.5001 41 66.5001H58.9166C59.8371 66.5001 60.5833 65.7539 60.5833 64.8334V59.4168C60.5833 58.4963 59.8371 57.7501 58.9166 57.7501H41Z" fill="#2B3A67"/>
</svg>
