<svg width="159" height="160" viewBox="0 0 159 160" fill="none" xmlns="http://www.w3.org/2000/svg">
<path fill-rule="evenodd" clip-rule="evenodd" d="M26.4533 0.751953C11.8518 0.751953 0.0148926 12.5888 0.0148926 27.1903V132.944C0.0148926 147.545 11.8517 159.382 26.4532 159.382H132.207C146.808 159.382 158.645 147.545 158.645 132.944V27.1903C158.645 12.5888 146.808 0.751953 132.207 0.751953H26.4533ZM50.9087 66.3192C47.9884 66.3192 45.621 68.6866 45.621 71.6069V88.7918C45.621 91.7121 47.9884 94.0795 50.9087 94.0795H107.751C110.671 94.0795 113.039 91.7121 113.039 88.7918V71.6069C113.039 68.6866 110.671 66.3192 107.751 66.3192H50.9087Z" fill="#2B3A67"/>
</svg>
