<svg width="159" height="160" viewBox="0 0 159 160" fill="none" xmlns="http://www.w3.org/2000/svg">
<path fill-rule="evenodd" clip-rule="evenodd" d="M26.4672 0.751953C11.8657 0.751953 0.0288086 12.5888 0.0288086 27.1903V132.944C0.0288086 147.545 11.8656 159.382 26.4671 159.382H132.221C146.822 159.382 158.659 147.545 158.659 132.944V27.1903C158.659 12.5888 146.822 0.751953 132.221 0.751953H26.4672ZM50.7905 27.9836C47.8702 27.9836 45.5028 30.351 45.5028 33.2713V50.4562C45.5028 53.3765 47.8702 55.7439 50.7905 55.7439H107.633C110.553 55.7439 112.921 53.3765 112.921 50.4562V33.2713C112.921 30.351 110.553 27.9836 107.633 27.9836H50.7905ZM45.6349 71.6071C45.6349 68.6868 48.0023 66.3194 50.9226 66.3194H107.765C110.685 66.3194 113.053 68.6868 113.053 71.6071V88.792C113.053 91.7123 110.685 94.0797 107.765 94.0797H50.9226C48.0023 94.0797 45.6349 91.7123 45.6349 88.792V71.6071ZM50.7904 104.655C47.8701 104.655 45.5027 107.022 45.5027 109.943V127.128C45.5027 130.048 47.8701 132.415 50.7904 132.415H107.633C110.553 132.415 112.921 130.048 112.921 127.128V109.943C112.921 107.022 110.553 104.655 107.633 104.655H50.7904Z" fill="#2B3A67"/>
</svg>
