<svg width="160" height="160" viewBox="0 0 160 160" fill="none" xmlns="http://www.w3.org/2000/svg">
<path fill-rule="evenodd" clip-rule="evenodd" d="M0.521973 27.1903C0.521973 12.5888 12.3588 0.751953 26.9603 0.751953H132.714C147.315 0.751953 159.152 12.5888 159.152 27.1903V132.944C159.152 147.545 147.315 159.382 132.714 159.382H26.9603C12.3588 159.382 0.521973 147.545 0.521973 132.944V27.1903ZM45.996 33.2713C45.996 30.351 48.3633 27.9836 51.2836 27.9836H108.126C111.046 27.9836 113.414 30.351 113.414 33.2713V50.4562C113.414 53.3765 111.046 55.7439 108.126 55.7439H51.2836C48.3633 55.7439 45.996 53.3765 45.996 50.4562V33.2713ZM51.2838 104.655C48.3635 104.655 45.9961 107.022 45.9961 109.943V127.128C45.9961 130.048 48.3635 132.415 51.2838 132.415H108.126C111.047 132.415 113.414 130.048 113.414 127.128V109.943C113.414 107.022 111.047 104.655 108.126 104.655H51.2838Z" fill="#2B3A67"/>
</svg>
