<svg width="100" height="100" viewBox="0 0 100 100" fill="none" xmlns="http://www.w3.org/2000/svg">
<path fill-rule="evenodd" clip-rule="evenodd" d="M25 33.3333C25 28.7309 28.731 25 33.3333 25H66.6667C71.2691 25 75 28.731 75 33.3333V66.6667C75 71.2691 71.269 75 66.6667 75H33.3333C28.7309 75 25 71.269 25 66.6667V33.3333ZM39.3333 35.25C39.3333 34.3296 40.0795 33.5834 41 33.5834H58.9167C59.8371 33.5834 60.5833 34.3296 60.5833 35.25V40.6667C60.5833 41.5872 59.8371 42.3334 58.9167 42.3334H41C40.0795 42.3334 39.3333 41.5872 39.3333 40.6667V35.25ZM41 57.7501C40.0796 57.7501 39.3334 58.4963 39.3334 59.4168V64.8334C39.3334 65.7539 40.0796 66.5001 41 66.5001H58.9167C59.8372 66.5001 60.5834 65.7539 60.5834 64.8334V59.4168C60.5834 58.4963 59.8372 57.7501 58.9167 57.7501H41Z" fill="#2B3A67"/>
</svg>
