<svg width="100" height="100" viewBox="0 0 100 100" fill="none" xmlns="http://www.w3.org/2000/svg">
<path fill-rule="evenodd" clip-rule="evenodd" d="M33.3333 25C28.731 25 25 28.7309 25 33.3333V66.6667C25 71.269 28.7309 75 33.3333 75H66.6667C71.269 75 75 71.2691 75 66.6667V33.3333C75 28.731 71.2691 25 66.6667 25H33.3333ZM41.0417 45.6667C40.1212 45.6667 39.375 46.4129 39.375 47.3334V52.75C39.375 53.6705 40.1212 54.4167 41.0417 54.4167H58.9583C59.8788 54.4167 60.625 53.6705 60.625 52.75V47.3334C60.625 46.4129 59.8788 45.6667 58.9583 45.6667H41.0417Z" fill="#2B3A67"/>
</svg>
