<svg width="100" height="100" viewBox="0 0 100 100" fill="none" xmlns="http://www.w3.org/2000/svg">
<path d="M53.2308 74.0074C51.7783 76.5231 48.1472 76.5231 46.6947 74.0074L44.3648 69.9719L48.8905 68.6307C49.5903 68.4233 50.3352 68.4233 51.035 68.6307L55.5606 69.9719L53.2308 74.0074Z" fill="#66999B"/>
<path d="M67.4042 49.4584L79.4072 70.2483C81.1122 73.2014 78.3364 76.7221 75.0669 75.7531L55.5606 69.9719L67.4042 49.4584Z" fill="#66999B"/>
<path fill-rule="evenodd" clip-rule="evenodd" d="M55.5607 28.9448L53.2308 24.9093C51.7783 22.3936 48.1472 22.3936 46.6947 24.9093L44.3648 28.9448L24.8586 23.1637C21.5891 22.1947 18.8133 25.7153 20.5183 28.6685L32.5213 49.4584L20.5183 70.2483C18.8133 73.2014 21.5891 76.7221 24.8586 75.7531L44.3648 69.9719L32.5213 49.4584L44.3648 28.9448L48.8905 30.2861C49.5903 30.4935 50.3352 30.4935 51.035 30.2861L55.5607 28.9448ZM55.5607 28.9448L75.0669 23.1637C78.3364 22.1947 81.1122 25.7153 79.4072 28.6685L67.4042 49.4584L55.5607 28.9448Z" fill="#66999B"/>
<path d="M50 54.1546C52.6051 54.1546 54.717 52.0428 54.717 49.4377C54.717 46.8325 52.6051 44.7207 50 44.7207C47.3949 44.7207 45.283 46.8325 45.283 49.4377C45.283 52.0428 47.3949 54.1546 50 54.1546Z" fill="#66999B"/>
<path d="M80 49.4377C80 52.0428 77.8881 54.1546 75.283 54.1546C72.6779 54.1546 70.566 52.0428 70.566 49.4377C70.566 46.8325 72.6779 44.7207 75.283 44.7207C77.8881 44.7207 80 46.8325 80 49.4377Z" fill="#66999B"/>
<path d="M24.717 54.1546C27.3221 54.1546 29.434 52.0428 29.434 49.4377C29.434 46.8325 27.3221 44.7207 24.717 44.7207C22.1119 44.7207 20 46.8325 20 49.4377C20 52.0428 22.1119 54.1546 24.717 54.1546Z" fill="#66999B"/>
</svg>
