<svg width="100" height="100" viewBox="0 0 100 100" fill="none" xmlns="http://www.w3.org/2000/svg">
<path fill-rule="evenodd" clip-rule="evenodd" d="M46.7279 74.0708C48.1822 76.5897 51.8178 76.5897 53.2721 74.0708L55.6048 70.0303L75.1354 75.8186C78.4089 76.7888 81.1882 73.2638 79.4811 70.307L67.4631 49.4912L79.481 28.6755C81.1882 25.7187 78.4089 22.1937 75.1353 23.1639L55.6049 28.9522L53.2721 24.9117C51.8178 22.3928 48.1822 22.3928 46.7279 24.9117L44.3952 28.9522L24.8646 23.1639C21.5911 22.1937 18.8118 25.7187 20.5189 28.6755L32.5369 49.4913L20.519 70.307C18.8118 73.2638 21.5911 76.7888 24.8647 75.8186L44.3951 70.0303L46.7279 74.0708ZM44.3951 70.0303L32.5369 49.4913L44.3952 28.9522L48.9264 30.2951C49.627 30.5028 50.3729 30.5028 51.0736 30.2951L55.6049 28.9522L67.4631 49.4912L55.6048 70.0303L51.0736 68.6874C50.373 68.4797 49.6271 68.4797 48.9264 68.6874L44.3951 70.0303Z" fill="#66999B"/>
<path d="M29.4457 49.4705C29.4457 52.0789 27.3312 54.1934 24.7228 54.1934C22.1145 54.1934 20 52.0789 20 49.4705C20 46.8622 22.1145 44.7477 24.7228 44.7477C27.3312 44.7477 29.4457 46.8622 29.4457 49.4705Z" fill="#66999B"/>
<path d="M75.2573 54.1934C77.8656 54.1934 79.9801 52.0789 79.9801 49.4705C79.9801 46.8622 77.8656 44.7477 75.2573 44.7477C72.6489 44.7477 70.5344 46.8622 70.5344 49.4705C70.5344 52.0789 72.6489 54.1934 75.2573 54.1934Z" fill="#66999B"/>
</svg>
