<svg width="100" height="100" viewBox="0 0 100 100" fill="none" xmlns="http://www.w3.org/2000/svg">
<path d="M53.272 74.0707C51.8178 76.5896 48.1821 76.5896 46.7279 74.0707L45.0005 71.0789L48.9265 69.9153C49.6271 69.7076 50.373 69.7076 51.0737 69.9153L54.9994 71.0788L53.272 74.0707Z" fill="#66999B"/>
<path d="M67.1086 50.1051L54.9994 71.0788L75.1354 77.0465C78.4089 78.0167 81.1882 74.4917 79.4811 71.5349L67.1086 50.1051Z" fill="#66999B"/>
<path fill-rule="evenodd" clip-rule="evenodd" d="M54.9995 29.1316L51.0735 30.2951C50.3729 30.5028 49.627 30.5028 48.9263 30.2951L45.0006 29.1316L46.728 26.1397C48.1823 23.6208 51.8179 23.6208 53.2722 26.1397L54.9995 29.1316ZM54.9995 29.1316L67.1086 50.1051L79.4809 28.6755C81.1881 25.7187 78.4088 22.1937 75.1353 23.1639L54.9995 29.1316Z" fill="#66999B"/>
<path d="M32.8914 50.1053L45.0005 71.0789L24.8647 77.0465C21.5912 78.0167 18.8119 74.4917 20.5191 71.5349L32.8914 50.1053Z" fill="#66999B"/>
<path d="M32.8914 50.1053L45.0006 29.1316L24.8646 23.1639C21.5911 22.1937 18.8118 25.7187 20.5189 28.6755L32.8914 50.1053Z" fill="#66999B"/>
<path d="M50.0374 55.4213C52.6458 55.4213 54.7602 53.3068 54.7602 50.6984C54.7602 48.0901 52.6458 45.9756 50.0374 45.9756C47.4291 45.9756 45.3146 48.0901 45.3146 50.6984C45.3146 53.3068 47.4291 55.4213 50.0374 55.4213Z" fill="#66999B"/>
</svg>
