<svg width="82" height="76" viewBox="0 0 82 76" fill="none" xmlns="http://www.w3.org/2000/svg">
<path d="M41 75.5H35L24.5 67.5L24.2774 67.5618M1.5 55.5L6.5 72.5L24.2774 67.5618M1.5 55.5L7 38M1.5 55.5H16M7 38L3.5 34L5 32.5L2.5 30.5L4 29L2 27L4 25.5L1 13L5 1M7 38L23.5 33.5M5 1L30.5 10.5M5 1L35 24M30.5 10.5H41M30.5 10.5L35 24M23.5 33.5L35 24M23.5 33.5L19 41M35 24L36 41.5M36 41.5L36.5 47V59.5L34.5 50.5M36 41.5L34.5 50.5M36 41.5L19 41M34.5 50.5L32 45.5L25.5 48M34.5 50.5L25.5 48M19 41L25.5 54.5V48M19 41L25.5 48M24.2774 67.5618L34.5 62.5M24.2774 67.5618L26 55.5M24.2774 67.5618L16 55.5M34.5 62.5L26 55.5M34.5 62.5L34 69.5L41 69M34.5 62.5L36.5 61.5H41M26 55.5H16" stroke="currentColor"/>
<path d="M41 75.5H47L57.5 67.5L57.7226 67.5618M80.5 55.5L75.5 72.5L57.7226 67.5618M80.5 55.5L75 38M80.5 55.5H66M75 38L78.5 34L77 32.5L79.5 30.5L78 29L80 27L78 25.5L81 13L77 1M75 38L58.5 33.5M77 1L51.5 10.5M77 1L47 24M51.5 10.5H41M51.5 10.5L47 24M58.5 33.5L47 24M58.5 33.5L63 41M47 24L46 41.5M46 41.5L45.5 47V59.5L47.5 50.5M46 41.5L47.5 50.5M46 41.5L63 41M47.5 50.5L50 45.5L56.5 48M47.5 50.5L56.5 48M63 41L56.5 54.5V48M63 41L56.5 48M57.7226 67.5618L47.5 62.5M57.7226 67.5618L56 55.5M57.7226 67.5618L66 55.5M47.5 62.5L56 55.5M47.5 62.5L48 69.5L41 69M47.5 62.5L45.5 61.5H41M56 55.5H66" stroke="currentColor"/>
</svg>
